{
  "asset": {
    "version": "2.0",
    "generator": "THREE.GLTFExporter"
  },
  "scenes": [
    {
      "nodes": [
        0
      ]
    }
  ],
  "scene": 0,
  "nodes": [
    {
      "children": [
        6
      ],
      "matrix": [
        0.01,
        0,
        0,
        0,
        0,
        0.01,
        0,
        0,
        0,
        0,
        0.01,
        0,
        0,
        0,
        0,
        1
      ]
    },
    {
      "matrix": [
        1.16,
        0,
        0,
        0,
        0,
        0.96,
        0,
        0,
        0,
        0,
        1.18,
        0,
        0,
        0,
        -2.842170943040401e-14,
        1
      ],
      "name": "Cloud",
      "mesh": 0
    },
    {
      "matrix": [
        0.03897620336291772,
        -0.03374411387672683,
        0.9986702110056588,
        0,
        0.6545398476624064,
        0.756027504672994,
        0,
        0,
        -0.7550221476178606,
        0.6536694477766272,
        0.05155394892646951,
        0,
        0,
        0,
        0,
        1
      ],
      "name": "Directional Light 2",
      "extensions": {
        "KHR_lights_punctual": {
          "light": 0
        }
      }
    },
    {
      "matrix": [
        0.01014026162081459,
        -0.08324944136160038,
        -0.9964771475589608,
        0,
        0.992663217920556,
        0.12091209942601612,
        0,
        0,
        0.120486143941402,
        -0.9891662118801747,
        0.08386473867339661,
        0,
        0,
        0,
        0,
        1
      ],
      "name": "Directional Light",
      "extensions": {
        "KHR_lights_punctual": {
          "light": 1
        }
      }
    },
    {
      "matrix": [
        -1,
        0,
        -1.2246467991473532e-16,
        0,
        -7.498798913309346e-33,
        1,
        6.123233995736813e-17,
        0,
        1.2246467991473532e-16,
        6.123233995736813e-17,
        -1,
        0,
        2.3615151763635123e-13,
        1.0607774721488303e-11,
        -999.9999999999964,
        1
      ],
      "camera": 0
    },
    {
      "matrix": [
        1,
        0,
        0,
        0,
        0,
        1,
        0,
        0,
        0,
        0,
        1,
        0,
        0,
        1,
        0,
        1
      ],
      "name": "Default Ambient Light"
    },
    {
      "name": "Scene Cloud",
      "children": [
        1,
        2,
        3,
        4,
        5
      ]
    }
  ],
  "bufferViews": [
    {
      "buffer": 0,
      "byteOffset": 0,
      "byteLength": 86016,
      "target": 34962,
      "byteStride": 12
    },
    {
      "buffer": 0,
      "byteOffset": 86016,
      "byteLength": 86016,
      "target": 34962,
      "byteStride": 12
    },
    {
      "buffer": 0,
      "byteOffset": 172032,
      "byteLength": 43008,
      "target": 34963
    }
  ],
  "buffers": [
    {
      "byteLength": 215040,
      "uri": "data:application/octet-stream;base64,"
    }
  ],
  "accessors": [
    {
      "bufferView": 0,
      "componentType": 5126,
      "count": 7168,
      "max": [
        142.70883178710938,
        100.14857482910156,
        80.58438873291016
      ],
      "min": [
        -146.7640380859375,
        -72.21355438232422,
        -80.58438873291016
      ],
      "type": "VEC3"
    },
    {
      "bufferView": 1,
      "componentType": 5126,
      "count": 7168,
      "max": [
        0.9992170929908752,
        0.9999400973320007,
        0.999946653842926
      ],
      "min": [
        -0.9982331395149231,
        -0.9999024868011475,
        -0.9999826550483704
      ],
      "type": "VEC3"
    },
    {
      "bufferView": 2,
      "componentType": 5125,
      "count": 10752,
      "max": [
        7167
      ],
      "min": [
        0
      ],
      "type": "SCALAR"
    }
  ],
  "materials": [
    {
      "pbrMetallicRoughness": {
        "baseColorFactor": [
          0.8975474556578289,
          0.6283602160857589,
          0.8778493197056723,
          1
        ],
        "metallicFactor": 0,
        "roughnessFactor": 0.995
      },
      "doubleSided": false
    }
  ],
  "meshes": [
    {
      "primitives": [
        {
          "mode": 4,
          "attributes": {
            "POSITION": 0,
            "NORMAL": 1
          },
          "extras": {
            "type": "SubdivGeometry",
            "parameters": {
              "width": 304.4322509765625,
              "height": 181.92755889892578,
              "depth": 183.03927612304688
            }
          },
          "indices": 2,
          "material": 0
        }
      ]
    }
  ],
  "extensions": {
    "KHR_lights_punctual": {
      "lights": [
        {
          "name": "Directional Light 2",
          "color": [
            1,
            1,
            1
          ],
          "intensity": 0.828,
          "type": "directional"
        },
        {
          "name": "Directional Light",
          "color": [
            1,
            1,
            1
          ],
          "intensity": 0.35,
          "type": "directional"
        }
      ]
    }
  },
  "cameras": [
    {
      "type": "orthographic",
      "orthographic": {
        "xmag": 6.830000000000001,
        "ymag": 3.3950000000000005,
        "zfar": 100000,
        "znear": 0
      }
    }
  ],
  "extensionsUsed": [
    "KHR_lights_punctual"
  ]
}